<svg id="Portfolio" xmlns="http://www.w3.org/2000/svg" width="309" height="324" viewBox="0 0 309 324">
  <defs>
    <style>
      .cls-1, .cls-2 {
        fill: #fff;
        stroke: #000;
        stroke-linejoin: round;
        stroke-width: 2px;
        fill-rule: evenodd;
      }

      .cls-2 {
        fill-opacity: 0;
      }
    </style>
  </defs>
  <g id="_1" data-name="1">
    <g id="Image">
      <path id="Rounded_Rectangle_2" data-name="Rounded Rectangle 2" class="cls-1" d="M18.674,19.016s13.119,5.017,31.851,5.017c22.744,0,54.949-9.686,88.917-5.017C197.836,27.043,234.574,15,265.519,15c19.5,0,31.851,4.013,31.851,4.013,3.664,0,6.635,2.246,6.635,5.017,0,0-7.962,13.323-7.962,34.115,0,18.292,7.962,42.365,7.962,68.231,0,44.636-5.308,94.612-5.308,129.436,0,26.442,5.308,44.149,5.308,44.149,0,2.77-2.971,5.017-6.635,5.017,0,0-10.824,5.016-31.851,5.016-22.521,0-56.358,1-88.917,1-55.206,0-99.773-9.031-127.4-9.031-10.048,0-30.524,3.011-30.524,3.011-3.665,0-6.636-2.247-6.636-5.017,0,0,11.944-30.011,0-70.237-11.55-38.9,5.309-89.771,5.309-130.44a518.577,518.577,0,0,0-5.309-75.253C12.039,21.262,15.009,19.016,18.674,19.016Z"/>
      <path id="Rounded_Rectangle_2_copy" data-name="Rounded Rectangle 2 copy" class="cls-2" d="M11.414,15.641S24.728,20.709,43.6,20.785c22.911,0.092,55.162-9.463,89.472-4.658,58.982,8.26,95.752-3.63,126.925-3.506,19.644,0.079,32.165,4.141,32.165,4.141,3.692,0.015,6.729,2.272,6.784,5.042,0,0-7.758,13.289-7.347,34.076,0.362,18.288,8.86,42.387,9.372,68.247,0.884,44.627-3.475,94.571-2.785,129.387,0.523,26.437,6.221,44.161,6.221,44.161,0.055,2.77-2.894,5-6.585,4.989,0,0-10.8,4.972-31.986,4.888-22.687-.091-56.752.777-89.552,0.645-55.611-.222-100.686-9.43-128.519-9.541-10.122-.04-30.689,2.887-30.689,2.887-3.691-.015-6.729-2.272-6.784-5.043,0,0,11.438-29.955-1.39-70.221-12.405-38.938,3.571-89.731,2.766-130.39A517.977,517.977,0,0,0,4.829,20.63C4.774,17.86,7.722,15.626,11.414,15.641Z"/>
    </g>
  </g>
</svg>
